<mxfile host="app.diagrams.net" modified="2023-02-14T15:39:00.419Z" agent="5.0 (Windows NT 10.0; Win64; x64) AppleWebKit/537.36 (KHTML, like Gecko) Chrome/109.0.0.0 Safari/537.36" etag="9GsFkCxh0dXe5yI5zdwk" version="20.7.3" type="github">
  <diagram id="6a731a19-8d31-9384-78a2-239565b7b9f0" name="Page-1">
    <mxGraphModel dx="1860" dy="840" grid="1" gridSize="10" guides="1" tooltips="1" connect="1" arrows="1" fold="1" page="1" pageScale="1" pageWidth="1169" pageHeight="827" background="none" math="0" shadow="0">
      <root>
        <mxCell id="0" />
        <mxCell id="1" parent="0" />
        <mxCell id="1350" value="ventanas de pvc" style="ellipse;whiteSpace=wrap;html=1;shadow=0;fontFamily=Helvetica;fontSize=20;fontColor=#FFFFFF;align=center;strokeWidth=3;fillColor=#1699D3;strokeColor=none;" parent="1" vertex="1">
          <mxGeometry x="305" y="865" width="120" height="120" as="geometry" />
        </mxCell>
        <mxCell id="1351" value="puertas de pvc" style="ellipse;whiteSpace=wrap;html=1;shadow=0;fontFamily=Helvetica;fontSize=20;fontColor=#FFFFFF;align=center;strokeWidth=3;fillColor=#F08705;strokeColor=none;gradientColor=none;" parent="1" vertex="1">
          <mxGeometry x="851.5" y="290" width="120" height="120" as="geometry" />
        </mxCell>
        <mxCell id="1352" value="perfiles pvc deceunick" style="ellipse;whiteSpace=wrap;html=1;shadow=0;fontFamily=Helvetica;fontSize=20;fontColor=#FFFFFF;align=center;strokeWidth=3;fillColor=#E85642;strokeColor=none;" parent="1" vertex="1">
          <mxGeometry x="1823.5" y="461.5" width="120" height="120" as="geometry" />
        </mxCell>
        <mxCell id="1353" value="contacto" style="ellipse;whiteSpace=wrap;html=1;shadow=0;fontFamily=Helvetica;fontSize=20;fontColor=#FFFFFF;align=center;strokeWidth=3;fillColor=#1699D3;strokeColor=none;" parent="1" vertex="1">
          <mxGeometry x="1883.5" y="1094.5" width="120" height="120" as="geometry" />
        </mxCell>
        <mxCell id="1354" value="blog" style="ellipse;whiteSpace=wrap;html=1;shadow=0;fontFamily=Helvetica;fontSize=20;fontColor=#FFFFFF;align=center;strokeWidth=3;fillColor=#736ca8;strokeColor=none;" parent="1" vertex="1">
          <mxGeometry x="1329" y="1354.5" width="120" height="120" as="geometry" />
        </mxCell>
        <mxCell id="1359" style="endArrow=none;strokeWidth=6;strokeColor=#1699D3;html=1;" parent="1" source="1515" target="1350" edge="1">
          <mxGeometry relative="1" as="geometry" />
        </mxCell>
        <mxCell id="1360" style="endArrow=none;strokeWidth=6;strokeColor=#f08705;html=1;" parent="1" source="1515" target="1351" edge="1">
          <mxGeometry relative="1" as="geometry" />
        </mxCell>
        <mxCell id="1361" style="endArrow=none;strokeWidth=6;strokeColor=#E85642;html=1;" parent="1" source="1515" target="1352" edge="1">
          <mxGeometry relative="1" as="geometry" />
        </mxCell>
        <mxCell id="1362" style="endArrow=none;strokeWidth=6;strokeColor=#1699D3;html=1;" parent="1" source="1515" target="1353" edge="1">
          <mxGeometry relative="1" as="geometry" />
        </mxCell>
        <mxCell id="1364" style="endArrow=none;strokeWidth=6;strokeColor=#736ca8;html=1;" parent="1" source="1515" target="1354" edge="1">
          <mxGeometry relative="1" as="geometry" />
        </mxCell>
        <mxCell id="1372" value="Ponemos los tipos" style="rounded=1;fillColor=#64BBE2;strokeColor=none;strokeWidth=3;shadow=0;html=1;fontColor=#FFFFFF;" parent="1" vertex="1">
          <mxGeometry x="270" y="680" width="130" height="40" as="geometry" />
        </mxCell>
        <mxCell id="1378" value="" style="edgeStyle=none;endArrow=none;strokeWidth=3;strokeColor=#64BBE2;html=1;" parent="1" source="1350" edge="1">
          <mxGeometry x="-440" y="650" width="100" height="100" as="geometry">
            <mxPoint x="-440" y="750" as="sourcePoint" />
            <mxPoint x="277.90322580645125" y="1060" as="targetPoint" />
          </mxGeometry>
        </mxCell>
        <mxCell id="1379" value="" style="edgeStyle=none;endArrow=none;strokeWidth=3;strokeColor=#64BBE2;html=1;" parent="1" source="1350" edge="1">
          <mxGeometry x="-440" y="650" width="100" height="100" as="geometry">
            <mxPoint x="-440" y="750" as="sourcePoint" />
            <mxPoint x="227.3809523809523" y="1010" as="targetPoint" />
          </mxGeometry>
        </mxCell>
        <mxCell id="1380" value="" style="edgeStyle=none;endArrow=none;strokeWidth=3;strokeColor=#64BBE2;html=1;" parent="1" source="1350" edge="1">
          <mxGeometry x="-440" y="650" width="100" height="100" as="geometry">
            <mxPoint x="-440" y="750" as="sourcePoint" />
            <mxPoint x="230" y="948.625" as="targetPoint" />
          </mxGeometry>
        </mxCell>
        <mxCell id="1381" value="" style="edgeStyle=none;endArrow=none;strokeWidth=3;strokeColor=#64BBE2;html=1;" parent="1" source="1350" edge="1">
          <mxGeometry x="-440" y="650" width="100" height="100" as="geometry">
            <mxPoint x="-440" y="750" as="sourcePoint" />
            <mxPoint x="230" y="898" as="targetPoint" />
          </mxGeometry>
        </mxCell>
        <mxCell id="1382" value="" style="edgeStyle=none;endArrow=none;strokeWidth=3;strokeColor=#64BBE2;html=1;" parent="1" source="1350" edge="1">
          <mxGeometry x="-440" y="650" width="100" height="100" as="geometry">
            <mxPoint x="-440" y="750" as="sourcePoint" />
            <mxPoint x="235.47619047619037" y="840" as="targetPoint" />
          </mxGeometry>
        </mxCell>
        <mxCell id="1383" value="" style="edgeStyle=none;endArrow=none;strokeWidth=3;strokeColor=#64BBE2;html=1;" parent="1" source="1350" edge="1">
          <mxGeometry x="-440" y="650" width="100" height="100" as="geometry">
            <mxPoint x="-440" y="750" as="sourcePoint" />
            <mxPoint x="268.3333333333335" y="780" as="targetPoint" />
          </mxGeometry>
        </mxCell>
        <mxCell id="1384" value="" style="edgeStyle=none;endArrow=none;strokeWidth=3;strokeColor=#64BBE2;html=1;" parent="1" source="1350" target="1372" edge="1">
          <mxGeometry x="-440" y="650" width="100" height="100" as="geometry">
            <mxPoint x="-440" y="750" as="sourcePoint" />
            <mxPoint x="-340" y="650" as="targetPoint" />
          </mxGeometry>
        </mxCell>
        <mxCell id="1385" value="" style="edgeStyle=none;endArrow=none;strokeWidth=3;strokeColor=#64BBE2;html=1;" parent="1" source="1350" edge="1">
          <mxGeometry x="-440" y="650" width="100" height="100" as="geometry">
            <mxPoint x="-440" y="750" as="sourcePoint" />
            <mxPoint x="444.090909090909" y="780" as="targetPoint" />
          </mxGeometry>
        </mxCell>
        <mxCell id="1386" value="" style="edgeStyle=none;endArrow=none;strokeWidth=3;strokeColor=#64BBE2;html=1;" parent="1" source="1350" edge="1">
          <mxGeometry x="-440" y="650" width="100" height="100" as="geometry">
            <mxPoint x="-440" y="750" as="sourcePoint" />
            <mxPoint x="482.38095238095275" y="840" as="targetPoint" />
          </mxGeometry>
        </mxCell>
        <mxCell id="1391" value="ponemos los tipos" style="rounded=1;fillColor=#f5af58;strokeColor=none;strokeWidth=3;shadow=0;html=1;fontColor=#FFFFFF;" parent="1" vertex="1">
          <mxGeometry x="711.5" y="190" width="120" height="40" as="geometry" />
        </mxCell>
        <mxCell id="1399" value="" style="edgeStyle=none;endArrow=none;strokeWidth=3;strokeColor=#F5AF58;html=1;" parent="1" source="1351" edge="1">
          <mxGeometry x="-248.5" y="70" width="100" height="100" as="geometry">
            <mxPoint x="-248.5" y="170" as="sourcePoint" />
            <mxPoint x="801.5" y="460" as="targetPoint" />
          </mxGeometry>
        </mxCell>
        <mxCell id="1400" value="" style="edgeStyle=none;endArrow=none;strokeWidth=3;strokeColor=#F5AF58;html=1;" parent="1" source="1351" edge="1">
          <mxGeometry x="-248.5" y="70" width="100" height="100" as="geometry">
            <mxPoint x="-248.5" y="170" as="sourcePoint" />
            <mxPoint x="781.5" y="391.0526315789475" as="targetPoint" />
          </mxGeometry>
        </mxCell>
        <mxCell id="1401" value="" style="edgeStyle=none;endArrow=none;strokeWidth=3;strokeColor=#F5AF58;html=1;" parent="1" source="1351" edge="1">
          <mxGeometry x="-248.5" y="70" width="100" height="100" as="geometry">
            <mxPoint x="-248.5" y="170" as="sourcePoint" />
            <mxPoint x="771.5" y="343" as="targetPoint" />
          </mxGeometry>
        </mxCell>
        <mxCell id="1402" value="" style="edgeStyle=none;endArrow=none;strokeWidth=3;strokeColor=#F5AF58;html=1;" parent="1" source="1351" edge="1">
          <mxGeometry x="-248.5" y="70" width="100" height="100" as="geometry">
            <mxPoint x="-248.5" y="170" as="sourcePoint" />
            <mxPoint x="776.5" y="290" as="targetPoint" />
          </mxGeometry>
        </mxCell>
        <mxCell id="1403" value="" style="edgeStyle=none;endArrow=none;strokeWidth=3;strokeColor=#F5AF58;html=1;" parent="1" source="1351" target="1391" edge="1">
          <mxGeometry x="-248.5" y="70" width="100" height="100" as="geometry">
            <mxPoint x="-248.5" y="170" as="sourcePoint" />
            <mxPoint x="-148.5" y="70" as="targetPoint" />
          </mxGeometry>
        </mxCell>
        <mxCell id="1404" value="" style="edgeStyle=none;endArrow=none;strokeWidth=3;strokeColor=#F5AF58;html=1;" parent="1" source="1351" edge="1">
          <mxGeometry x="-248.5" y="70" width="100" height="100" as="geometry">
            <mxPoint x="-248.5" y="170" as="sourcePoint" />
            <mxPoint x="848.5" y="170" as="targetPoint" />
          </mxGeometry>
        </mxCell>
        <mxCell id="1405" value="" style="edgeStyle=none;endArrow=none;strokeWidth=3;strokeColor=#F5AF58;html=1;" parent="1" source="1351" edge="1">
          <mxGeometry x="-248.5" y="70" width="100" height="100" as="geometry">
            <mxPoint x="-248.5" y="170" as="sourcePoint" />
            <mxPoint x="965.4999999999995" y="170" as="targetPoint" />
          </mxGeometry>
        </mxCell>
        <mxCell id="1406" value="" style="edgeStyle=none;endArrow=none;strokeWidth=3;strokeColor=#F5AF58;html=1;" parent="1" source="1351" edge="1">
          <mxGeometry x="-248.5" y="70" width="100" height="100" as="geometry">
            <mxPoint x="-248.5" y="170" as="sourcePoint" />
            <mxPoint x="1022.9285714285711" y="230" as="targetPoint" />
          </mxGeometry>
        </mxCell>
        <mxCell id="1407" value="" style="edgeStyle=none;endArrow=none;strokeWidth=3;strokeColor=#F5AF58;html=1;" parent="1" source="1351" edge="1">
          <mxGeometry x="-248.5" y="70" width="100" height="100" as="geometry">
            <mxPoint x="-248.5" y="170" as="sourcePoint" />
            <mxPoint x="1046.5" y="290" as="targetPoint" />
          </mxGeometry>
        </mxCell>
        <mxCell id="1408" value="" style="edgeStyle=none;endArrow=none;strokeWidth=3;strokeColor=#F5AF58;html=1;" parent="1" source="1351" edge="1">
          <mxGeometry x="-248.5" y="70" width="100" height="100" as="geometry">
            <mxPoint x="-248.5" y="170" as="sourcePoint" />
            <mxPoint x="1046.5" y="343.0769230769231" as="targetPoint" />
          </mxGeometry>
        </mxCell>
        <mxCell id="1409" value="" style="edgeStyle=none;endArrow=none;strokeWidth=3;strokeColor=#F5AF58;html=1;" parent="1" source="1351" edge="1">
          <mxGeometry x="-248.5" y="70" width="100" height="100" as="geometry">
            <mxPoint x="-248.5" y="170" as="sourcePoint" />
            <mxPoint x="1041.5" y="384.21052631578937" as="targetPoint" />
          </mxGeometry>
        </mxCell>
        <mxCell id="1410" value="" style="edgeStyle=none;endArrow=none;strokeWidth=3;strokeColor=#F5AF58;html=1;" parent="1" source="1351" edge="1">
          <mxGeometry x="-248.5" y="70" width="100" height="100" as="geometry">
            <mxPoint x="-248.5" y="170" as="sourcePoint" />
            <mxPoint x="1024" y="450" as="targetPoint" />
          </mxGeometry>
        </mxCell>
        <mxCell id="1415" value="catalogo" style="rounded=1;fillColor=#f08e81;strokeColor=none;strokeWidth=3;shadow=0;html=1;fontColor=#FFFFFF;" parent="1" vertex="1">
          <mxGeometry x="1663.5" y="396.5" width="120" height="40" as="geometry" />
        </mxCell>
        <mxCell id="1416" value="informacion" style="rounded=1;fillColor=#f08e81;strokeColor=none;strokeWidth=3;shadow=0;html=1;fontColor=#FFFFFF;" parent="1" vertex="1">
          <mxGeometry x="1753.5" y="326.5" width="120" height="40" as="geometry" />
        </mxCell>
        <mxCell id="1417" value="sala distribucion virtual" style="rounded=1;fillColor=#f08e81;strokeColor=none;strokeWidth=3;shadow=0;html=1;fontColor=#FFFFFF;" parent="1" vertex="1">
          <mxGeometry x="1888.5" y="271.5" width="120" height="40" as="geometry" />
        </mxCell>
        <mxCell id="1418" value="colores" style="rounded=1;fillColor=#f08e81;strokeColor=none;strokeWidth=3;shadow=0;html=1;fontColor=#FFFFFF;" parent="1" vertex="1">
          <mxGeometry x="1983.5" y="356.5" width="120" height="40" as="geometry" />
        </mxCell>
        <mxCell id="1426" value="" style="edgeStyle=none;endArrow=none;strokeWidth=3;strokeColor=#F08E81;html=1;" parent="1" source="1352" target="1415" edge="1">
          <mxGeometry x="153.5" y="211.5" width="100" height="100" as="geometry">
            <mxPoint x="153.5" y="311.5" as="sourcePoint" />
            <mxPoint x="253.5" y="211.5" as="targetPoint" />
          </mxGeometry>
        </mxCell>
        <mxCell id="1427" value="" style="edgeStyle=none;endArrow=none;strokeWidth=3;strokeColor=#F08E81;html=1;" parent="1" source="1352" target="1416" edge="1">
          <mxGeometry x="153.5" y="211.5" width="100" height="100" as="geometry">
            <mxPoint x="153.5" y="311.5" as="sourcePoint" />
            <mxPoint x="253.5" y="211.5" as="targetPoint" />
          </mxGeometry>
        </mxCell>
        <mxCell id="1428" value="" style="edgeStyle=none;endArrow=none;strokeWidth=3;strokeColor=#F08E81;html=1;" parent="1" source="1352" target="1417" edge="1">
          <mxGeometry x="153.5" y="211.5" width="100" height="100" as="geometry">
            <mxPoint x="153.5" y="311.5" as="sourcePoint" />
            <mxPoint x="253.5" y="211.5" as="targetPoint" />
          </mxGeometry>
        </mxCell>
        <mxCell id="1429" value="" style="edgeStyle=none;endArrow=none;strokeWidth=3;strokeColor=#F08E81;html=1;" parent="1" source="1352" target="1418" edge="1">
          <mxGeometry x="153.5" y="211.5" width="100" height="100" as="geometry">
            <mxPoint x="153.5" y="311.5" as="sourcePoint" />
            <mxPoint x="253.5" y="211.5" as="targetPoint" />
          </mxGeometry>
        </mxCell>
        <mxCell id="1430" value="" style="edgeStyle=none;endArrow=none;strokeWidth=3;strokeColor=#F08E81;html=1;" parent="1" source="1352" edge="1">
          <mxGeometry x="153.5" y="211.5" width="100" height="100" as="geometry">
            <mxPoint x="153.5" y="311.5" as="sourcePoint" />
            <mxPoint x="2041.166666666667" y="466.5000000000002" as="targetPoint" />
          </mxGeometry>
        </mxCell>
        <mxCell id="1431" value="" style="edgeStyle=none;endArrow=none;strokeWidth=3;strokeColor=#F08E81;html=1;" parent="1" source="1352" edge="1">
          <mxGeometry x="153.5" y="211.5" width="100" height="100" as="geometry">
            <mxPoint x="153.5" y="311.5" as="sourcePoint" />
            <mxPoint x="2068.5" y="525.2755102040817" as="targetPoint" />
          </mxGeometry>
        </mxCell>
        <mxCell id="1441" value="Eel" style="rounded=1;fillColor=#64BBE2;strokeColor=none;strokeWidth=3;shadow=0;html=1;fontColor=#FFFFFF;" parent="1" vertex="1">
          <mxGeometry x="2068.5" y="1254.5" width="120" height="40" as="geometry" />
        </mxCell>
        <mxCell id="1443" value="Ray" style="rounded=1;fillColor=#64BBE2;strokeColor=none;strokeWidth=3;shadow=0;html=1;fontColor=#FFFFFF;" parent="1" vertex="1">
          <mxGeometry x="1928.5" y="1304.5" width="120" height="40" as="geometry" />
        </mxCell>
        <mxCell id="1446" value="" style="edgeStyle=none;endArrow=none;strokeWidth=3;strokeColor=#64BBE2;html=1;" parent="1" source="1353" edge="1">
          <mxGeometry x="-76.5" y="484.5" width="100" height="100" as="geometry">
            <mxPoint x="-76.5" y="584.5" as="sourcePoint" />
            <mxPoint x="1827.25" y="1094.5" as="targetPoint" />
          </mxGeometry>
        </mxCell>
        <mxCell id="1447" value="" style="edgeStyle=none;endArrow=none;strokeWidth=3;strokeColor=#64BBE2;html=1;" parent="1" source="1353" edge="1">
          <mxGeometry x="-76.5" y="484.5" width="100" height="100" as="geometry">
            <mxPoint x="-76.5" y="584.5" as="sourcePoint" />
            <mxPoint x="1835.1666666666665" y="1024.5" as="targetPoint" />
          </mxGeometry>
        </mxCell>
        <mxCell id="1448" value="" style="edgeStyle=none;endArrow=none;strokeWidth=3;strokeColor=#64BBE2;html=1;" parent="1" source="1353" edge="1">
          <mxGeometry x="-76.5" y="484.5" width="100" height="100" as="geometry">
            <mxPoint x="-76.5" y="584.5" as="sourcePoint" />
            <mxPoint x="1943.5" y="994.5" as="targetPoint" />
          </mxGeometry>
        </mxCell>
        <mxCell id="1449" value="" style="edgeStyle=none;endArrow=none;strokeWidth=3;strokeColor=#64BBE2;html=1;" parent="1" source="1353" edge="1">
          <mxGeometry x="-76.5" y="484.5" width="100" height="100" as="geometry">
            <mxPoint x="-76.5" y="584.5" as="sourcePoint" />
            <mxPoint x="2053.0652173913045" y="944.5" as="targetPoint" />
          </mxGeometry>
        </mxCell>
        <mxCell id="1450" value="" style="edgeStyle=none;endArrow=none;strokeWidth=3;strokeColor=#64BBE2;html=1;" parent="1" source="1353" edge="1">
          <mxGeometry x="-76.5" y="484.5" width="100" height="100" as="geometry">
            <mxPoint x="-76.5" y="584.5" as="sourcePoint" />
            <mxPoint x="2084.9285714285716" y="1034.5" as="targetPoint" />
          </mxGeometry>
        </mxCell>
        <mxCell id="1451" value="" style="edgeStyle=none;endArrow=none;strokeWidth=3;strokeColor=#64BBE2;html=1;" parent="1" source="1353" edge="1">
          <mxGeometry x="-76.5" y="484.5" width="100" height="100" as="geometry">
            <mxPoint x="-76.5" y="584.5" as="sourcePoint" />
            <mxPoint x="2118.5" y="1109.81914893617" as="targetPoint" />
          </mxGeometry>
        </mxCell>
        <mxCell id="1452" value="" style="edgeStyle=none;endArrow=none;strokeWidth=3;strokeColor=#64BBE2;html=1;" parent="1" source="1353" edge="1">
          <mxGeometry x="-76.5" y="484.5" width="100" height="100" as="geometry">
            <mxPoint x="-76.5" y="584.5" as="sourcePoint" />
            <mxPoint x="2128.5" y="1173.3775510204082" as="targetPoint" />
          </mxGeometry>
        </mxCell>
        <mxCell id="1453" value="" style="edgeStyle=none;endArrow=none;strokeWidth=3;strokeColor=#64BBE2;html=1;" parent="1" source="1353" target="1441" edge="1">
          <mxGeometry x="-76.5" y="484.5" width="100" height="100" as="geometry">
            <mxPoint x="-76.5" y="584.5" as="sourcePoint" />
            <mxPoint x="23.5" y="484.5" as="targetPoint" />
          </mxGeometry>
        </mxCell>
        <mxCell id="1454" value="" style="edgeStyle=none;endArrow=none;strokeWidth=3;strokeColor=#64BBE2;html=1;" parent="1" source="1353" target="1443" edge="1">
          <mxGeometry x="-76.5" y="484.5" width="100" height="100" as="geometry">
            <mxPoint x="-76.5" y="584.5" as="sourcePoint" />
            <mxPoint x="23.5" y="484.5" as="targetPoint" />
          </mxGeometry>
        </mxCell>
        <mxCell id="1455" value="" style="edgeStyle=none;endArrow=none;strokeWidth=3;strokeColor=#64BBE2;html=1;" parent="1" source="1353" edge="1">
          <mxGeometry x="-76.5" y="484.5" width="100" height="100" as="geometry">
            <mxPoint x="-76.5" y="584.5" as="sourcePoint" />
            <mxPoint x="1878.0454545454545" y="1244.5" as="targetPoint" />
          </mxGeometry>
        </mxCell>
        <mxCell id="1456" value="" style="edgeStyle=none;endArrow=none;strokeWidth=3;strokeColor=#64BBE2;html=1;" parent="1" source="1353" edge="1">
          <mxGeometry x="-76.5" y="484.5" width="100" height="100" as="geometry">
            <mxPoint x="-76.5" y="584.5" as="sourcePoint" />
            <mxPoint x="1823.5" y="1184.5" as="targetPoint" />
          </mxGeometry>
        </mxCell>
        <mxCell id="1514" style="edgeStyle=orthogonalEdgeStyle;rounded=0;html=1;exitX=0.75;exitY=0;entryX=0.75;entryY=0;startArrow=none;startFill=0;endArrow=block;endFill=1;jettySize=auto;orthogonalLoop=1;strokeColor=#12aab5;strokeWidth=6;fontSize=20;fontColor=#2F5B7C;" parent="1" edge="1">
          <mxGeometry relative="1" as="geometry">
            <mxPoint x="1733.5" y="476.5000000000002" as="sourcePoint" />
            <mxPoint x="1733.5" y="476.5000000000002" as="targetPoint" />
          </mxGeometry>
        </mxCell>
        <mxCell id="1515" value="Inicio" style="ellipse;whiteSpace=wrap;html=1;shadow=0;fontFamily=Helvetica;fontSize=30;fontColor=#2F5B7C;align=center;strokeColor=#2F5B7C;strokeWidth=6;fillColor=#FFFFFF;fontStyle=1;gradientColor=none;" parent="1" vertex="1">
          <mxGeometry x="1023.5" y="706.5" width="270" height="270" as="geometry" />
        </mxCell>
        <mxCell id="_fYFQbGoGldKPoWLbMih-1542" style="endArrow=none;strokeWidth=6;strokeColor=#33FF33;html=1;fillColor=#80FF00;exitX=0;exitY=1;exitDx=0;exitDy=0;" edge="1" parent="1" source="1515" target="_fYFQbGoGldKPoWLbMih-1544">
          <mxGeometry relative="1" as="geometry">
            <mxPoint x="940" y="1110" as="sourcePoint" />
            <mxPoint x="760" y="1310" as="targetPoint" />
          </mxGeometry>
        </mxCell>
        <mxCell id="_fYFQbGoGldKPoWLbMih-1544" value="&lt;font color=&quot;#000000&quot;&gt;Local&lt;/font&gt;" style="ellipse;whiteSpace=wrap;html=1;shadow=0;fontFamily=Helvetica;fontSize=20;fontColor=#FFFFFF;align=center;strokeWidth=3;fillColor=#33FF33;strokeColor=#000000;" vertex="1" parent="1">
          <mxGeometry x="620" y="1254.5" width="120" height="120" as="geometry" />
        </mxCell>
      </root>
    </mxGraphModel>
  </diagram>
</mxfile>
